<svg xmlns="http://www.w3.org/2000/svg" xmlns:xlink="http://www.w3.org/1999/xlink" width="1920" height="750" viewBox="0 0 1920 750">
    <defs>
        <path id="a" d="M0 0h1920v750H0z"/>
        <path id="c" d="M1920 632.17V0H0v593.82c125.17 50.6 262.497 86.36 384.8 109.93C590.953 743.47 834.81 750 998.96 750c173.579 0 367.137-18.28 483.096-33.42 175.008-22.87 320.227-51.64 437.944-84.41z"/>
        <linearGradient id="e" x1="50%" x2="50%" y1="100%" y2="0%">
            <stop offset="19%" stop-color="#FFF" stop-opacity="0"/>
            <stop offset="100%" stop-color="#FFF"/>
        </linearGradient>
        <path id="f" d="M0 0h1920v750H0z"/>
    </defs>
    <g fill="none" fill-rule="evenodd">
        <path fill="#FFF" d="M0 0h1920v750H0z"/>
        <mask id="b" fill="#fff">
            <use xlink:href="#a"/>
        </mask>
        <path fill="#FFC000" d="M979.855 749.69c-354.81 0-595.155-19.365-928.113-79.863-690.99-125.55-533.698-249.427-532.616-275.885 7.968-194.747 1928.526-73.855 1928.526-73.855l1194.246 130.804s-372.34 138.173-509.577 170.217c-189.423 44.228-419.6 82.707-613.135 102.224-120.046 12.106-381.268 26.357-539.33 26.357" mask="url(#b)"/>
        <g>
            <mask id="d" fill="#fff">
                <use xlink:href="#c"/>
            </mask>
            <use fill="#FAFCFF" xlink:href="#c"/>
            <path fill="#FC0" fill-opacity=".3" d="M1852.495 1029.317c4.823 36.934 5.928 80.726 2.563 119.476-26.972 310.614-466.076 426.147-775.113 370.907-122.676-21.929-239.025-79.846-331.98-156.606-145.289-110.937-204.474-248.714-202.936-407.728.829-86.19-17.423-105.12 28.595-175.167C697.037 592.345 888.02 689.61 921 698.38c123.96 32.97 233.582 3.145 300.604-17.545 56.16-17.336 141.587-31.767 201.871-26.866 341.296 27.726 429.023 375.066 429.023 375.066-.127 1.454-.073.976-.003.283z" mask="url(#d)"/>
            <path fill="#FC0" fill-opacity=".35" d="M129.368 907.697c-11.915 32.248-20.494 70.236-22.558 105.049-17.136 288.832 239.846 455.954 568.485 465.874 130.458 3.938 266.738-22.942 384.669-72.154 181.46-69.076 322.28-191.347 371.176-329.636 26.507-74.955 11.417-150.814-15.253-220.75-48.963-128.413-251.553-112.883-251.553-112.883-216.53 8.202-334.554-26.077-383.33-44.894-43.48-16.775-85.329-34.943-133.365-43.37-413.123-72.5-518.184 252.519-518.184 252.519-.333 1.285-.234.86-.087.245z" mask="url(#d)"/>
            <path fill="#FC0" fill-opacity=".5" d="M1485.067 881.476c4.007 21.445-39.474 54.011-43.66 76.127-34.721 183.49-265.184 264.105-525.88 238.885-103.487-10.013-206.417-39.984-291.155-82.26-131.494-60.864-222.075-151.33-237.524-243.078-8.38-49.73-15.093-105.911 25.033-147.203 68.481-70.47 203.119-53.15 232.927-42.98C757.39 719.382 808 719.382 932.756 696.676c63.447-11.548 109.578-31.942 180.244-40.871 391.78-49.524 462 204.73 462 204.73.049.841-89.918 21.344-89.933 20.942z" mask="url(#d)"/>
        </g>
        <path fill="url(#e)" fill-opacity=".5" d="M0 0h1920v750H0z"/>
    </g>
</svg>

