<svg xmlns="http://www.w3.org/2000/svg" xmlns:xlink="http://www.w3.org/1999/xlink" width="1920" height="350" viewBox="0 0 1920 350">
    <defs>
        <path id="a" d="M0 0h1920v750H0z"/>
        <path id="c" d="M1920 632.17V0H0v593.82c125.17 50.6 262.497 86.36 384.8 109.93C590.953 743.47 834.81 750 998.96 750c173.579 0 367.137-18.28 483.096-33.42 175.008-22.87 320.227-51.64 437.944-84.41z"/>
        <linearGradient id="e" x1="50%" x2="50%" y1="100%" y2="0%">
            <stop offset="19%" stop-color="#FFF" stop-opacity="0"/>
            <stop offset="100%" stop-color="#FFF"/>
        </linearGradient>
        <path id="f" d="M0 0h1920v750H0z"/>
    </defs>
    <g fill="none" fill-rule="evenodd">
        <path fill="#FFF" d="M0 0h1920v750H0z"/>
        <mask id="b" fill="#fff">
            <use xlink:href="#a"/>
        </mask>
        <path fill="url(#e)" fill-opacity=".5" d="M0 0h1920v750H0z"/>
        <g>
            <mask id="g" fill="#fff">
                <use xlink:href="#f"/>
            </mask>
            <path fill="#10CED5" d="M1718.17-62.09c27.57-26 33-48.24 33.55-76.48 5-234.27-249.53-356-567-347-126 3.57-256.41 32.35-368.22 78.22-172.3 65.21-326.37 177.3-383.08 284.9-33.93 64.37-6.1 126.93 38.34 178.18 84.72 97.73 267.85 80.91 267.85 80.91 166.57-11.91 251.71-13.25 391.88-.16 127.38 11.87 267.71 18.45 372.56-12.13 83.08-24.18 213.52-87.16 214.12-186.44z" mask="url(#g)" opacity=".7"/>
            <path fill="#FF003C" d="M1378.81-132.2c-.21-1-.13-.68 0-.2a263.94 263.94 0 0 0-21.67-82.08C1258.49-433.3 969.25-519.16 679.48-476.4c-115 17-223 57.9-306.25 112.75-130.68 79.42-184.08 175.21-175 286.35 4.51 55.3 27.56 99.34 81.21 142 98.76 78.65 255.9 57.47 255.9 57.47 185.26-20.15 229.23-16.84 361.22-9 54.41 3.25 128.49 4.73 174.52-1.11 288.05-36.54 307.73-244.26 307.73-244.26z" mask="url(#g)" opacity=".6"/>
            <path fill="#C821FF" d="M1424.65-341.12c-.35-1.19-.22-.8 0-.23a470.36 470.36 0 0 0-17.71-99.17c-75-253.94-476.12-298.93-735.73-217.6-103 32.29-194.63 93.63-262.72 167.86-107.93 108.55-141.55 234.39-113.76 365.8 15 71.23 51.28 125.9 114.14 172.05 111 81.52 253.72 22.62 253.72 22.62C823.18 2.61 911.45 20.96 958.22 23.7c41.69 2.44 83.69 1.34 125-4.59 354.81-51 341.43-360.23 341.43-360.23z" mask="url(#g)" opacity=".4"/>
            <path fill="#2A2523" d="M503.99-2c6.55 10.83 55 100 190.62 100 74.85 0 103.51-19 199.1-19 144.91 0 159.6 26 313.83 26 196.88 0 271.78-91.06 281.36-106l-432.69-115.26S497.45-12.84 503.99-2z" mask="url(#g)" opacity=".93"/>
        </g>
    </g>
</svg>

