<svg xmlns="http://www.w3.org/2000/svg" xmlns:xlink="http://www.w3.org/1999/xlink" width="320" height="108" viewBox="0 0 320 108">
    <defs>
        <path id="a" d="M0 0h320v110H0z"/>
    </defs>
    <g fill="none" fill-rule="evenodd">
        <mask id="b" fill="#fff">
            <use xlink:href="#a"/>
        </mask>
        <path fill="#10CED5" d="M1343.39-92.348c27.56-25.982 32.988-48.207 33.538-76.427 4.998-234.108-249.443-355.754-566.802-346.76-125.956 3.568-256.32 32.328-368.09 78.166-172.24 65.165-326.257 177.177-382.947 284.702C25.171-88.34 52.991-25.825 97.416 25.39c84.69 97.662 267.756 80.854 267.756 80.854 166.512-11.902 251.622-13.241 391.743-.16 127.335 11.862 267.616 18.437 372.43-12.122 83.05-24.163 213.445-87.1 214.044-186.31z" mask="url(#b)" opacity=".7"/>
        <path fill="#FF003C" d="M1004-162.046c-.21-1-.13-.68 0-.2a264.012 264.012 0 0 0-21.678-82.106c-98.686-218.89-388.033-304.776-677.91-262.003C189.37-489.349 81.33-448.437-1.951-393.569c-130.728 79.445-184.148 175.265-175.065 286.44 4.512 55.317 27.57 99.371 81.24 142.045C3.021 113.59 160.22 92.404 160.22 92.404 345.547 72.247 389.533 75.559 521.572 83.4c54.43 3.251 128.537 4.731 174.584-1.11C984.313 45.739 1004-162.046 1004-162.046z" mask="url(#b)" opacity=".6"/>
        <path fill="#C821FF" d="M1017.934-375.024c-.35-1.19-.22-.8 0-.23a470.712 470.712 0 0 0-17.706-99.198c-74.982-254.01-476.005-299.013-735.553-217.66C161.7-659.813 70.092-598.456 2.018-524.205c-107.904 108.58-141.516 234.455-113.733 365.902C-96.718-87.053-60.447-32.368 2.398 13.795 113.37 95.337 256.058 36.42 256.058 36.42c160.55-67.619 248.8-49.264 295.558-46.523 41.68 2.44 83.67 1.34 124.97-4.591 354.725-51.015 341.348-360.33 341.348-360.33z" mask="url(#b)" opacity=".4"/>
        <path fill="#2A2523" d="M128.057-49.874c6.55 10.817 55.002 99.882 190.626 99.882 74.853 0 103.514-18.977 199.107-18.977C662.705 31.03 677.395 57 831.63 57c196.887 0 271.79-90.953 281.37-105.875L680.295-164S121.517-60.702 128.057-49.874z" mask="url(#b)" opacity=".93"/>
    </g>
</svg>
