<svg xmlns="http://www.w3.org/2000/svg" xmlns:xlink="http://www.w3.org/1999/xlink" width="1920" height="510" viewBox="0 0 1920 510">
    <defs>
        <path id="a" d="M0 0h1920v510H0z"/>
        <filter id="c" width="111.1%" height="207.1%" x="-5.6%" y="-53.6%" filterUnits="objectBoundingBox">
            <feOffset in="SourceAlpha" result="shadowOffsetOuter1"/>
            <feGaussianBlur in="shadowOffsetOuter1" result="shadowBlurOuter1" stdDeviation="10"/>
            <feColorMatrix in="shadowBlurOuter1" values="0 0 0 0 1 0 0 0 0 0.396078431 0 0 0 0 0 0 0 0 0.2 0"/>
        </filter>
        <filter id="e" width="108.6%" height="178.9%" x="-4.3%" y="-39.5%" filterUnits="objectBoundingBox">
            <feOffset in="SourceAlpha" result="shadowOffsetOuter1"/>
            <feGaussianBlur in="shadowOffsetOuter1" result="shadowBlurOuter1" stdDeviation="10"/>
            <feColorMatrix in="shadowBlurOuter1" values="0 0 0 0 1 0 0 0 0 0.396078431 0 0 0 0 0 0 0 0 0.5 0"/>
        </filter>
    </defs>
    <g fill="none" fill-rule="evenodd">
        <g>
            <mask id="b" fill="#fff">
                <use xlink:href="#a"/>
            </mask>
            <use fill="#FFC700" xlink:href="#a"/>
            <path fill="#FD892D" fill-opacity=".1" d="M2415.718 574.743c18.675 55.504-5.74 93.883-5.884 153.79-1.198 497.033-503.727 784.385-1122.808 801.162-245.751 6.66-498.886-39.716-714.934-124.505-333.2-119.027-583.836-329.554-659.774-567.562-41.17-129.007-238.378-333.827-163.35-448.8 158.813-243.384 590.54-203.146 725.482-145.19 290.246 124.66 515.683 142.789 740.569 43.36 154.144-68.153 203.694-172.88 531.006-215.892 405.164-53.242 674.426 215.933 704.256 352.624.479 2.213-34.353 152.072-34.563 151.013z" mask="url(#b)" transform="rotate(20 1091.195 797.278)"/>
            <path fill="#FFB400" fill-opacity=".4" d="M-348.557 838.408c-16.345 66.156-70.589 13.717-64.703 83.18 48.835 576.317 658.706 861.494 1377.834 821.724 285.467-15.787 574.427-93.788 816.737-212.79 374.825-169.917 645.218-438.052 710.511-721.346 35.4-153.553 111.273-286.724-17.829-402.844-300.81-270.562-540.53-246.325-704.026-181.677-312.016 123.375-576.648 118.363-829.842 7.953C774.39 160.336 576.799-18.421 315.202-33.622-187.09-62.81-237.448 513.733-433.69 328.821c-.344 2.612 84.993 510.835 85.134 509.587z" mask="url(#b)" transform="rotate(-14 1056.341 856.137)"/>
            <path fill="#FD892D" fill-opacity=".1" d="M2709.48 624.91c22.67 64.263 71.597 6.858 72.457 76.553 7.137 578.24-572.392 920.74-1292.12 950.37-285.704 11.761-580.904-38.053-833.633-133.163-389.568-133.026-684.679-373.847-777.082-649.492-50.097-149.407-205.257-394.583-119.968-529.562C-60.338 53.883 470.452 90.91 601.695 167.728c271.09 158.67 463.567 191.836 712.138 88.277 221.765-92.39 310.928-249.6 641.054-323.641 698.134-156.578 576.96 894.965 754.428 692.057.595 2.565.427 1.717.165.488z" mask="url(#b)" transform="rotate(17 1258.007 784.965)"/>
        </g>
        <g fill="#FFF">
            <g transform="translate(610 184)">
                <use filter="url(#c)" xlink:href="#d"/>
                <use xlink:href="#d"/>
            </g>
            <g transform="translate(610 184)">
                <use filter="url(#e)" xlink:href="#f"/>
                <use xlink:href="#f"/>
            </g>
        </g>
    </g>
</svg>
